<?xml version="1.0" encoding="UTF-8"?>
<svg width="34px" height="34px" viewBox="0 0 34 34" version="1.1" xmlns="http://www.w3.org/2000/svg" xmlns:xlink="http://www.w3.org/1999/xlink">
    <!-- Generator: Sketch 50.2 (55047) - http://www.bohemiancoding.com/sketch -->
    <title>ic_add_user</title>
    <desc>Created with Sketch.</desc>
    <defs></defs>
    <g id="ic_add_user" stroke="none" stroke-width="1" fill="none" fill-rule="evenodd">
        <g id="filter-icon">
            <path d="M3.4,0 L34,0 L34,34 L3.4,34 C1.52223185,34 -1.10230735e-15,32.4777681 -1.33226763e-15,30.6 L-4.4408921e-16,3.4 C-6.74049485e-16,1.52223185 1.52223185,-9.87327216e-16 3.4,-1.33226763e-15 Z" id="Rectangle-2"></path>
        </g>
        <g id="icon" transform="translate(5.000000, 5.000000)">
            <rect id="Rectangle-4-Copy" x="0" y="0" width="24" height="24"></rect>
            <circle id="Oval-4" stroke="#FFFFFF" cx="12" cy="12" r="8.5"></circle>
            <path d="M12.5,11.5 L16,11.5 L16,12.5 L12.5,12.5 L12.5,16 L11.5,16 L11.5,12.5 L8,12.5 L8,11.5 L11.5,11.5 L11.5,8 L12.5,8 L12.5,11.5 Z" id="Combined-Shape" fill="#FFFFFF"></path>
        </g>
    </g>
</svg>